<svg width="560" height="560" viewBox="0 0 560 560" fill="none" xmlns="http://www.w3.org/2000/svg">
<g clip-path="url(#clip0_255_32)">
<path d="M348.964 3.65104C346.484 1.30729 343.203 0 339.792 0H118.667C81.8646 0.0416667 52.0417 29.8646 52 66.6667V493.333C52.0417 530.135 81.8646 559.958 118.667 560H441.438C478.24 559.958 508.063 530.135 508.104 493.333V160.135C508.104 156.474 506.599 152.974 503.938 150.453L348.964 3.65104ZM355.203 46.2969L460.427 145.974H368.536C361.177 145.964 355.208 140 355.203 132.641V46.2969ZM441.438 533.333H118.667C96.5833 533.307 78.6927 515.417 78.6667 493.333V66.6667C78.6927 44.5833 96.5833 26.6927 118.667 26.6667H328.531V132.641C328.557 154.719 346.453 172.615 368.531 172.641H481.432V493.333C481.411 515.411 463.516 533.307 441.438 533.333Z" fill="white"/>
<path d="M356.954 299.141C353.907 295.433 349.105 293.646 344.375 294.464C339.651 295.282 335.724 298.573 334.099 303.089C332.474 307.604 333.401 312.641 336.526 316.282L370.922 357.282L336.526 398.282C333.401 401.922 332.474 406.964 334.099 411.479C335.724 415.99 339.651 419.287 344.375 420.099C349.105 420.917 353.907 419.131 356.954 415.422L398.552 365.854C402.709 360.896 402.709 353.667 398.552 348.714L356.954 299.141Z" fill="white"/>
<path d="M189.177 357.282L223.578 316.282C226.703 312.641 227.631 307.604 226.006 303.089C224.381 298.573 220.453 295.282 215.724 294.464C211 293.646 206.198 295.433 203.151 299.141L161.558 348.714C157.401 353.667 157.401 360.896 161.558 365.854L203.151 415.422C206.198 419.131 211 420.917 215.724 420.099C220.453 419.287 224.381 415.99 226.006 411.479C227.631 406.964 226.703 401.922 223.578 398.282L189.177 357.282Z" fill="white"/>
<path d="M294.583 261.485C287.307 260.38 280.505 265.386 279.401 272.667L254.338 437.896C253.229 445.177 258.239 451.974 265.521 453.078C266.187 453.183 266.859 453.235 267.536 453.235C274.12 453.224 279.713 448.412 280.703 441.901L305.765 276.667C306.875 269.386 301.864 262.589 294.583 261.485Z" fill="white"/>
</g>
<defs>
<clipPath id="clip0_255_32">
<rect width="560" height="560" fill="white"/>
</clipPath>
</defs>
</svg>
