<svg width="172" height="24" viewBox="0 0 172 24" fill="none" xmlns="http://www.w3.org/2000/svg">
<g clip-path="url(#clip0_2003_210)">
<mask id="mask0_2003_210" style="mask-type:luminance" maskUnits="userSpaceOnUse" x="0" y="0" width="172" height="24">
<path d="M172 0.0253906H0V23.6932H172V0.0253906Z" fill="white"/>
</mask>
<g mask="url(#mask0_2003_210)">
<path d="M23.06 22.9532H15.8724L12.8615 17.2186H7.31472V22.9532H0V0.766113H12.7068C18.8613 0.766113 22.3197 3.40691 22.3197 9.24651C22.3197 12.2298 20.9717 14.3458 19.0988 15.6662L23.06 22.9588V22.9532ZM7.31472 6.84327V11.7547H12.204C14.0548 11.7547 15.0051 10.8542 15.0051 9.29622C15.0051 7.73828 14.0548 6.83774 12.204 6.83774H7.31472V6.84327ZM24.5186 22.9532V0.766113H44.5179V6.63332H31.8387V9.46198H44.0428V14.2684H31.8387V17.097H44.5179V22.9643H24.5186V22.9532ZM53.4624 22.9532L45.3024 0.766113H52.8602L58.197 16.0861H58.9871L64.3239 0.766113H71.8817L63.7162 22.9588H53.4679L53.4624 22.9532ZM72.9367 22.9532V0.766113H92.9359V6.63332H80.2572V9.46198H92.4613V14.2684H80.2572V17.097H92.9359V22.9643H72.9367V22.9532Z" fill="white"/>
<path d="M117.974 0.766422H110.786L107.776 6.50105H102.229V0.766422H94.9142V22.9535H107.62C113.775 22.9535 117.234 20.3128 117.234 14.4731C117.234 11.4898 115.886 9.37388 114.013 8.05347L117.974 0.760899V0.766422ZM102.234 16.8819V11.9705H107.123C108.975 11.9705 109.925 12.871 109.925 14.4289C109.925 15.987 108.975 16.8875 107.123 16.8875H102.234V16.8819ZM129.194 0.0261143C121.532 0.0537378 117.914 2.42935 118.101 8.19158H124.681C124.758 6.68336 126.029 5.76074 129.2 5.73311C132.001 5.70549 133.294 6.50105 133.294 7.52862C133.294 8.24129 132.896 8.98162 130.731 9.29652L127.88 9.74401C123.681 10.4291 118.631 10.9318 118.631 16.6112C118.631 20.9978 122.2 23.6883 129.25 23.6883C135.614 23.6883 140.056 21.9204 139.924 15.5781H133.399C133.134 17.0587 131.891 17.9814 129.095 17.9814C126.665 17.9814 125.659 17.241 125.659 16.2355C125.659 15.6002 126.056 14.8378 127.747 14.5726L130.095 14.1749C134.51 13.4345 140.559 13.3019 140.559 7.22478C140.554 2.40173 136.802 -0.00150908 129.194 0.0261143ZM141.94 0.766422V22.9535H161.94V17.0919H149.26V14.2633H161.464V9.45676H149.26V6.62811H161.94V0.766422H141.94Z" fill="white"/>
<path d="M169.032 22.7284C170.646 22.7284 171.999 21.397 171.999 19.8058C171.999 18.2147 170.646 16.8833 169.032 16.8833C167.419 16.8833 166.066 18.2147 166.066 19.8058C166.066 21.397 167.419 22.7284 169.032 22.7284Z" fill="#0AB291"/>
</g>
</g>
<defs>
<clipPath id="clip0_2003_210">
<rect width="172" height="23.9494" fill="white" transform="translate(0 0.0253906)"/>
</clipPath>
</defs>
</svg>
