<svg width="96" height="96" viewBox="0 0 96 96" fill="none" xmlns="http://www.w3.org/2000/svg">
<g clip-path="url(#clip0_255_37)">
<path d="M95.0004 9.83039C95.2656 9.83039 95.52 9.72503 95.7075 9.5375C95.895 9.34996 96.0004 9.09561 96.0004 8.83039V1.00039C96.0004 0.735174 95.895 0.48082 95.7075 0.293284C95.52 0.105747 95.2656 0.000390304 95.0004 0.000390304H87.1704C86.9052 0.000390304 86.6508 0.105747 86.4633 0.293284C86.2757 0.48082 86.1704 0.735174 86.1704 1.00039V3.92039H52.8204C52.593 2.8099 51.9892 1.81199 51.1109 1.09535C50.2327 0.378708 49.1339 -0.0126953 48.0004 -0.0126953C46.8669 -0.0126953 45.7681 0.378708 44.8899 1.09535C44.0116 1.81199 43.4078 2.8099 43.1804 3.92039H9.83039V1.00039C9.83039 0.735174 9.72503 0.48082 9.5375 0.293284C9.34996 0.105747 9.09561 0.000390304 8.83039 0.000390304H1.00039C0.735174 0.000390304 0.48082 0.105747 0.293284 0.293284C0.105747 0.48082 0.000390304 0.735174 0.000390304 1.00039V8.83039C0.000390304 9.09561 0.105747 9.34996 0.293284 9.5375C0.48082 9.72503 0.735174 9.83039 1.00039 9.83039H3.92039V43.1804C2.8099 43.4078 1.81199 44.0116 1.09535 44.8899C0.378708 45.7681 -0.0126953 46.8669 -0.0126953 48.0004C-0.0126953 49.1339 0.378708 50.2327 1.09535 51.1109C1.81199 51.9892 2.8099 52.593 3.92039 52.8204V86.1704H1.00039C0.735174 86.1704 0.48082 86.2757 0.293284 86.4633C0.105747 86.6508 0.000390304 86.9052 0.000390304 87.1704V95.0004C0.000390304 95.2656 0.105747 95.52 0.293284 95.7075C0.48082 95.895 0.735174 96.0004 1.00039 96.0004H8.83039C9.09561 96.0004 9.34996 95.895 9.5375 95.7075C9.72503 95.52 9.83039 95.2656 9.83039 95.0004V92.0804H43.1804C43.4078 93.1909 44.0116 94.1888 44.8899 94.9054C45.7681 95.6221 46.8669 96.0135 48.0004 96.0135C49.1339 96.0135 50.2327 95.6221 51.1109 94.9054C51.9892 94.1888 52.593 93.1909 52.8204 92.0804H86.1704V95.0004C86.1704 95.2656 86.2757 95.52 86.4633 95.7075C86.6508 95.895 86.9052 96.0004 87.1704 96.0004H95.0004C95.2656 96.0004 95.52 95.895 95.7075 95.7075C95.895 95.52 96.0004 95.2656 96.0004 95.0004V87.1704C96.0004 86.9052 95.895 86.6508 95.7075 86.4633C95.52 86.2757 95.2656 86.1704 95.0004 86.1704H92.0804V52.8204C93.1909 52.593 94.1888 51.9892 94.9054 51.1109C95.6221 50.2327 96.0135 49.1339 96.0135 48.0004C96.0135 46.8669 95.6221 45.7681 94.9054 44.8899C94.1888 44.0116 93.1909 43.4078 92.0804 43.1804V9.83039H95.0004ZM88.1704 2.00039H94.0004V7.83039H88.1704V2.00039ZM48.0004 2.00039C48.5779 2.00039 49.1425 2.17165 49.6227 2.4925C50.1028 2.81335 50.4771 3.26939 50.6981 3.80295C50.9191 4.33651 50.9769 4.92363 50.8643 5.49005C50.7516 6.05648 50.4735 6.57677 50.0651 6.98514C49.6568 7.39351 49.1365 7.67161 48.5701 7.78428C48.0036 7.89695 47.4165 7.83913 46.883 7.61812C46.3494 7.39711 45.8934 7.02285 45.5725 6.54266C45.2516 6.06246 45.0804 5.49791 45.0804 4.92039C45.0804 4.14596 45.388 3.40324 45.9356 2.85564C46.4832 2.30803 47.226 2.00039 48.0004 2.00039ZM2.00039 7.83039V2.00039H7.83039V7.83039H2.00039ZM2.00039 48.0004C2.00039 47.4229 2.17165 46.8583 2.4925 46.3781C2.81335 45.8979 3.26939 45.5237 3.80295 45.3027C4.33651 45.0817 4.92363 45.0238 5.49005 45.1365C6.05648 45.2492 6.57677 45.5273 6.98514 45.9356C7.39351 46.344 7.67161 46.8643 7.78428 47.4307C7.89695 47.9971 7.83913 48.5843 7.61812 49.1178C7.39711 49.6514 7.02285 50.1074 6.54266 50.4283C6.06246 50.7491 5.49791 50.9204 4.92039 50.9204C4.14596 50.9204 3.40324 50.6127 2.85564 50.0651C2.30803 49.5175 2.00039 48.7748 2.00039 48.0004ZM7.83039 94.0004H2.00039V88.1704H7.83039V94.0004ZM48.0004 94.0004C47.4229 94.0004 46.8583 93.8291 46.3781 93.5083C45.8979 93.1874 45.5237 92.7314 45.3027 92.1978C45.0817 91.6643 45.0238 91.0772 45.1365 90.5107C45.2492 89.9443 45.5273 89.424 45.9356 89.0156C46.344 88.6073 46.8643 88.3292 47.4307 88.2165C47.9971 88.1038 48.5843 88.1617 49.1178 88.3827C49.6514 88.6037 50.1074 88.9779 50.4283 89.4581C50.7491 89.9383 50.9204 90.5029 50.9204 91.0804C50.9204 91.4639 50.8449 91.8436 50.6981 92.1978C50.5514 92.5521 50.3363 92.874 50.0651 93.1451C49.794 93.4163 49.4721 93.6314 49.1178 93.7781C48.7636 93.9249 48.3838 94.0004 48.0004 94.0004ZM94.0004 88.1704V94.0004H88.1704V88.1704H94.0004ZM94.0004 48.0004C94.0004 48.5779 93.8291 49.1425 93.5083 49.6227C93.1874 50.1028 92.7314 50.4771 92.1978 50.6981C91.6643 50.9191 91.0772 50.9769 90.5107 50.8643C89.9443 50.7516 89.424 50.4735 89.0156 50.0651C88.6073 49.6568 88.3292 49.1365 88.2165 48.5701C88.1038 48.0036 88.1617 47.4165 88.3827 46.883C88.6037 46.3494 88.9779 45.8934 89.4581 45.5725C89.9383 45.2516 90.5029 45.0804 91.0804 45.0804C91.4639 45.0804 91.8436 45.1559 92.1978 45.3027C92.5521 45.4494 92.874 45.6645 93.1451 45.9356C93.4163 46.2068 93.6314 46.5287 93.7781 46.883C93.9249 47.2372 94.0004 47.6169 94.0004 48.0004ZM90.0804 43.1804C88.9779 43.4173 87.9899 44.0249 87.2813 44.9021C86.5726 45.7792 86.186 46.8727 86.186 48.0004C86.186 49.128 86.5726 50.2216 87.2813 51.0987C87.9899 51.9758 88.9779 52.5835 90.0804 52.8204V86.1704H87.1704C86.9052 86.1704 86.6508 86.2757 86.4633 86.4633C86.2757 86.6508 86.1704 86.9052 86.1704 87.1704V90.0804H52.8204C52.5835 88.9779 51.9758 87.9899 51.0987 87.2813C50.2216 86.5726 49.128 86.186 48.0004 86.186C46.8727 86.186 45.7792 86.5726 44.9021 87.2813C44.0249 87.9899 43.4173 88.9779 43.1804 90.0804H9.83039V87.1704C9.83039 86.9052 9.72503 86.6508 9.5375 86.4633C9.34996 86.2757 9.09561 86.1704 8.83039 86.1704H5.92039V52.8204C7.02287 52.5835 8.01083 51.9758 8.71952 51.0987C9.4282 50.2216 9.81477 49.128 9.81477 48.0004C9.81477 46.8727 9.4282 45.7792 8.71952 44.9021C8.01083 44.0249 7.02287 43.4173 5.92039 43.1804V9.83039H8.83039C9.09561 9.83039 9.34996 9.72503 9.5375 9.5375C9.72503 9.34996 9.83039 9.09561 9.83039 8.83039V5.92039H43.1804C43.4173 7.02287 44.0249 8.01083 44.9021 8.71952C45.7792 9.4282 46.8727 9.81477 48.0004 9.81477C49.128 9.81477 50.2216 9.4282 51.0987 8.71952C51.9758 8.01083 52.5835 7.02287 52.8204 5.92039H86.1704V8.83039C86.1704 9.09561 86.2757 9.34996 86.4633 9.5375C86.6508 9.72503 86.9052 9.83039 87.1704 9.83039H90.0804V43.1804Z" fill="white"/>
<path d="M60.5701 18.0007H63.7701C64.0353 18.0007 64.2896 17.8954 64.4772 17.7079C64.6647 17.5203 64.7701 17.266 64.7701 17.0007C64.7701 16.7355 64.6647 16.4812 64.4772 16.2936C64.2896 16.1061 64.0353 16.0007 63.7701 16.0007H59.6601L58.7101 13.9107C58.6 13.6694 58.3986 13.4817 58.1501 13.3888C57.9016 13.296 57.6264 13.3057 57.3851 13.4157C57.1437 13.5258 56.956 13.7272 56.8632 13.9757C56.7703 14.2242 56.78 14.4994 56.8901 14.7407L57.4701 16.0007H41.6401L42.3701 14.3907C42.4246 14.2712 42.455 14.1422 42.4596 14.0109C42.4642 13.8797 42.443 13.7488 42.397 13.6257C42.351 13.5027 42.2813 13.3899 42.1917 13.2938C42.1022 13.1977 41.9946 13.1202 41.8751 13.0657C41.7556 13.0112 41.6265 12.9808 41.4952 12.9762C41.364 12.9716 41.2331 12.9929 41.1101 13.0388C40.987 13.0848 40.8742 13.1545 40.7782 13.2441C40.6821 13.3336 40.6046 13.4412 40.5501 13.5607L39.4401 16.0007H34.7201C34.4549 16.0007 34.2005 16.1061 34.013 16.2936C33.8254 16.4812 33.7201 16.7355 33.7201 17.0007C33.7201 17.266 33.8254 17.5203 34.013 17.7079C34.2005 17.8954 34.4549 18.0007 34.7201 18.0007H38.5301L21.1301 56.2907H17.7101C17.4449 56.2907 17.1905 56.3961 17.003 56.5836C16.8154 56.7712 16.7101 57.0255 16.7101 57.2907C16.7101 57.556 16.8154 57.8103 17.003 57.9979C17.1905 58.1854 17.4449 58.2907 17.7101 58.2907H20.2201C20.2201 58.3907 20.8601 56.8707 11.2201 78.0407H8.83008C8.56486 78.0407 8.31051 78.1461 8.12297 78.3336C7.93544 78.5212 7.83008 78.7755 7.83008 79.0407C7.83008 79.306 7.93544 79.5603 8.12297 79.7479C8.31051 79.9354 8.56486 80.0407 8.83008 80.0407H10.3401L9.48008 82.0007C9.41643 82.1215 9.37819 82.254 9.36771 82.3902C9.35723 82.5263 9.37472 82.6631 9.41912 82.7922C9.46352 82.9213 9.53387 83.0399 9.62586 83.1408C9.71785 83.2416 9.82951 83.3226 9.95397 83.3787C10.0784 83.4348 10.2131 83.4648 10.3496 83.4668C10.4861 83.4689 10.6215 83.443 10.7477 83.3907C10.8738 83.3385 10.9878 83.2609 11.0828 83.1629C11.1779 83.0649 11.2518 82.9484 11.3001 82.8207L12.5401 80.0007H37.1101C37.3753 80.0007 37.6296 79.8954 37.8172 79.7079C38.0047 79.5203 38.1101 79.266 38.1101 79.0007C38.1101 78.7355 38.0047 78.4812 37.8172 78.2936C37.6296 78.1061 37.3753 78.0007 37.1101 78.0007H34.6401L38.8201 68.7807H60.2801L65.1101 79.4108C65.1875 79.5831 65.3122 79.7301 65.4697 79.8345C65.6273 79.9389 65.8111 79.9966 66.0001 80.0007H86.5601L87.0701 81.1307C87.1246 81.2502 87.2021 81.3579 87.2982 81.4474C87.3942 81.537 87.507 81.6067 87.6301 81.6527C87.7531 81.6986 87.884 81.7199 88.0152 81.7153C88.1465 81.7107 88.2756 81.6802 88.3951 81.6257C88.5146 81.5712 88.6222 81.4937 88.7117 81.3977C88.8013 81.3016 88.871 81.1888 88.917 81.0658C88.963 80.9427 88.9842 80.8118 88.9796 80.6806C88.975 80.5493 88.9446 80.4203 88.8901 80.3008L60.5701 18.0007ZM32.4601 78.0007H26.4601L30.6401 68.7907H36.6401L32.4601 78.0007ZM66.6701 78.0007C60.9301 65.3807 62.9001 69.7207 62.4801 68.7807H64.4801C64.7453 68.7807 64.9996 68.6754 65.1872 68.4879C65.3747 68.3003 65.4801 68.046 65.4801 67.7807C65.4801 67.5155 65.3747 67.2612 65.1872 67.0736C64.9996 66.8861 64.7453 66.7807 64.4801 66.7807H26.0001C25.7349 66.7807 25.4805 66.8861 25.293 67.0736C25.1054 67.2612 25.0001 67.5155 25.0001 67.7807C25.0001 68.046 25.1054 68.3003 25.293 68.4879C25.4805 68.6754 25.7349 68.7807 26.0001 68.7807H28.4801C28.0601 69.7207 30.0201 65.3907 24.3001 78.0007H13.4501C25.7301 51.0007 21.5301 60.2507 22.4501 58.2507H55.5501L56.7701 61.0007C56.8184 61.1284 56.8923 61.2449 56.9873 61.3429C57.0823 61.4409 57.1964 61.5185 57.3225 61.5707C57.4486 61.623 57.5841 61.6489 57.7206 61.6468C57.8571 61.6448 57.9917 61.6148 58.1162 61.5587C58.2406 61.5026 58.3523 61.4216 58.4443 61.3208C58.5363 61.2199 58.6066 61.1013 58.651 60.9722C58.6954 60.8431 58.7129 60.7063 58.7024 60.5702C58.692 60.434 58.6537 60.3015 58.5901 60.1807L57.7501 58.3207H59.8901C60.1553 58.3207 60.4096 58.2154 60.5972 58.0279C60.7847 57.8403 60.8901 57.586 60.8901 57.3207C60.8901 57.0555 60.7847 56.8012 60.5972 56.6136C60.4096 56.4261 60.1553 56.3207 59.8901 56.3207H56.8901L44.7701 29.7207C44.6609 29.4797 44.4608 29.2918 44.2134 29.1981C43.966 29.1044 43.6915 29.1125 43.4501 29.2207C43.2091 29.3299 43.0211 29.5301 42.9274 29.7775C42.8337 30.0249 42.8419 30.2993 42.9501 30.5407L44.4001 33.7307L34.1601 56.2907H23.3301L40.7301 18.0007H50.2101L77.4901 78.0007H66.6701ZM54.5901 56.2907H44.5201L49.5201 45.2007L54.5901 56.2907ZM48.4501 42.7807L42.3301 56.2907H36.3301L45.4401 36.2207L48.4501 42.7807ZM79.6901 78.0007L52.4101 18.0007H58.4101L85.6501 78.0007H79.6901Z" fill="white"/>
<path d="M55.8506 78H42.8506C42.5854 78 42.331 78.1054 42.1435 78.2929C41.9559 78.4804 41.8506 78.7348 41.8506 79C41.8506 79.2652 41.9559 79.5196 42.1435 79.7071C42.331 79.8946 42.5854 80 42.8506 80H55.8506C56.1158 80 56.3702 79.8946 56.5577 79.7071C56.7452 79.5196 56.8506 79.2652 56.8506 79C56.8506 78.7348 56.7452 78.4804 56.5577 78.2929C56.3702 78.1054 56.1158 78 55.8506 78Z" fill="white"/>
</g>
<defs>
<clipPath id="clip0_255_37">
<rect width="96" height="96" fill="white"/>
</clipPath>
</defs>
</svg>
