<svg width="488" height="355" viewBox="0 0 488 355" fill="none" xmlns="http://www.w3.org/2000/svg">
<path d="M366.554 352.679H252.303L204.442 261.524H116.272V352.679H0V0H201.983C299.812 0 354.787 41.9773 354.787 134.801C354.787 182.223 333.359 215.858 303.589 236.847L366.554 352.767V352.679ZM116.272 96.6004V174.671H193.991C223.41 174.671 238.515 160.357 238.515 135.592C238.515 110.827 223.41 96.5125 193.991 96.5125H116.272V96.6004Z" fill="white"/>
<path d="M440.474 354.745C466.117 354.745 487.632 333.581 487.632 308.289C487.632 282.997 466.117 261.833 440.474 261.833C414.831 261.833 393.315 282.997 393.315 308.289C393.315 333.581 414.831 354.745 440.474 354.745Z" fill="#0AB291"/>
</svg>
